<svg width="173" height="39" viewBox="0 0 173 39" fill="none" xmlns="http://www.w3.org/2000/svg">
<g clip-path="url(#clip0)">
<path d="M27.9304 29.5252L20.9066 32.5439V32.242C19.5523 32.5848 18.052 32.7824 16.631 32.8459C10.0256 32.7824 4.7826 29.3648 4.72158 25.2981V23.7884C6.89111 26.9072 11.3075 28.9968 16.631 28.9214C18.432 28.9968 20.2744 28.715 21.8225 28.3175L22.4332 26.8078C20.5971 27.3494 18.593 27.7262 16.631 27.7136C10.0256 27.7262 4.7826 24.3087 4.72158 20.1665V18.9587C6.89111 21.8416 11.2981 23.9319 16.631 23.7891C19.0302 23.9319 21.3765 23.433 23.3491 22.5813L23.6548 21.0717C21.7275 22.0769 19.2296 22.6606 16.631 22.5813C10.0256 22.6606 4.7826 19.2431 4.72158 15.0342V13.8265C6.89111 16.7766 11.3075 18.8663 16.631 18.9587C19.6567 18.8663 22.5251 18.0756 24.8764 16.8452L25.1821 15.0336C23.0478 16.5974 19.9322 17.6051 16.631 17.751C10.0256 17.6051 4.78323 14.1869 4.72158 9.90193C4.7826 5.82643 10.0256 2.4089 16.631 2.3548C20.5688 2.4089 24.226 3.7739 26.4037 5.9774L26.6157 6.32651L28.1555 6.3328L27.9304 5.9774C25.7646 3.06749 21.4331 1.14706 16.631 1.14706C9.32232 1.14706 3.5 5.12946 3.5 9.90193V25.6001C3.75665 30.2587 9.44624 34.053 16.631 34.053C21.3765 34.053 25.6413 32.208 27.9304 29.5252Z" fill="white"/>
<path d="M25.0731 40.1471L27.5389 29.7875L20.4503 32.8346L24.7655 14.8581H16.4434L18.6009 6.02206H45.1058L42.9483 14.8581H34.3192L32.4698 19.7331L42.0236 15.7721L25.0731 40.1471ZM29.3882 27.6545L28.1553 33.7485L38.3255 18.5146L30.004 22.1712L33.7027 13.6396H42.0236L43.5647 7.24112H19.5256L17.9845 13.6396H26.306L22.299 30.7021L29.3882 27.6557V27.6545ZM63.3654 11.8576C63.2924 12.8678 62.9194 13.6629 62.2463 14.2441C61.5733 14.8247 60.6863 15.1147 59.5855 15.1147C58.3822 15.1147 57.4342 14.7096 56.7448 13.8988C56.0548 13.0886 55.7094 11.9759 55.7094 10.5612V9.98685C55.7094 9.08419 55.8686 8.28846 56.1869 7.6003C56.5052 6.91277 56.96 6.38438 57.5506 6.01703C58.1419 5.64904 58.8288 5.46537 59.612 5.46537C60.6951 5.46537 61.5682 5.75598 62.2306 6.33658C62.8924 6.91654 63.2748 7.73177 63.3786 8.781H61.4437C61.3965 8.17461 61.2273 7.73491 60.9373 7.46191C60.6467 7.18891 60.2051 7.05241 59.612 7.05241C58.9666 7.05241 58.4841 7.28327 58.1639 7.74561C57.8431 8.20795 57.6789 8.92504 57.6701 9.8969V10.6064C57.6701 11.6211 57.8242 12.3627 58.1312 12.8313C58.4394 13.3 58.9238 13.5346 59.5862 13.5346C60.1837 13.5346 60.6297 13.3981 60.9241 13.1251C61.2191 12.8521 61.3877 12.4294 61.4305 11.8576H63.3654V11.8576ZM73.3569 10.5033C73.3569 11.428 73.1934 12.2382 72.8663 12.9345C72.5398 13.6315 72.0725 14.1687 71.4636 14.5473C70.8553 14.9254 70.1577 15.1147 69.3708 15.1147C68.5927 15.1147 67.8982 14.9279 67.2874 14.5536C66.6772 14.1793 66.2036 13.6453 65.8683 12.9509C65.533 12.2564 65.3632 11.4575 65.3588 10.5542V10.09C65.3588 9.16533 65.5255 8.352 65.8589 7.64937C66.1923 6.94611 66.6628 6.4064 67.2717 6.02961C67.88 5.65345 68.5757 5.46537 69.3582 5.46537C70.1407 5.46537 70.8364 5.65408 71.4447 6.02961C72.053 6.4064 72.5241 6.94611 72.8569 7.64874C73.1902 8.352 73.3569 9.16345 73.3569 10.0837V10.5033V10.5033ZM71.3963 10.0774C71.3963 9.09237 71.2201 8.34445 70.8679 7.83242C70.515 7.32101 70.0117 7.065 69.3582 7.065C68.7084 7.065 68.2077 7.31787 67.8548 7.82298C67.5025 8.32809 67.3239 9.06846 67.3201 10.0454V10.5033C67.3201 11.4619 67.4962 12.2061 67.8485 12.7345C68.2008 13.2635 68.7084 13.5283 69.3708 13.5283C70.0199 13.5283 70.5187 13.2735 70.8679 12.764C71.2157 12.2545 71.3918 11.5116 71.3963 10.5354V10.0774ZM77.8262 14.9858H75.8913V5.59432H77.8262V14.9858ZM88.2631 14.9858H86.3276L82.5609 8.80679V14.9858H80.626V5.59432H82.5609L86.3345 11.7865V5.59432H88.2631V14.9858ZM97.842 7.16187H94.9655V14.9858H93.0305V7.16187H90.1924V5.59432H97.842V7.16187V7.16187ZM105.602 10.9159H101.887V13.4314H106.247V14.9858H99.9512V5.59432H106.234V7.16187H101.887V9.39996H105.602V10.9159V10.9159ZM110.323 13.4314H114.432V14.9858H108.388V5.59432H110.323V13.4321V13.4314ZM122.198 10.9153H118.483V13.4314H122.843V14.9858H116.548V5.59432H122.83V7.16187H118.483V9.39996H122.198V10.9159V10.9153ZM132.416 13.7988C132.067 14.2158 131.575 14.5398 130.938 14.7694C130.302 14.9996 129.597 15.1153 128.822 15.1153C128.01 15.1153 127.297 14.9373 126.684 14.5826C126.072 14.2278 125.599 13.7132 125.265 13.0377C124.932 12.3627 124.761 11.5695 124.753 10.658V10.0189C124.753 9.08167 124.911 8.27022 125.227 7.58458C125.543 6.89893 125.999 6.37369 126.594 6.01074C127.19 5.64716 127.887 5.46537 128.687 5.46537C129.801 5.46537 130.672 5.73082 131.3 6.26235C131.927 6.79325 132.299 7.56633 132.416 8.58096H130.532C130.446 8.04314 130.255 7.65 129.961 7.40027C129.667 7.15117 129.261 7.02662 128.745 7.02662C128.087 7.02662 127.586 7.27383 127.242 7.76825C126.898 8.26267 126.724 8.99801 126.72 9.97427V10.5737C126.72 11.5588 126.907 12.3023 127.281 12.8055C127.655 13.3088 128.204 13.5604 128.926 13.5604C129.652 13.5604 130.171 13.4056 130.48 13.0962V11.477H128.719V10.0516H132.416V13.7988V13.7988ZM138.466 11.5481H136.924V14.9858H134.989V5.59432H138.479C139.588 5.59432 140.444 5.84153 141.045 6.33658C141.648 6.831 141.949 7.52922 141.949 8.43251C141.949 9.0735 141.81 9.60754 141.533 10.0353C141.255 10.463 140.834 10.804 140.272 11.0575L142.303 14.8952V14.9858H140.226L138.466 11.5481V11.5481ZM136.924 9.98056H138.484C138.971 9.98056 139.347 9.85664 139.614 9.60943C139.88 9.36222 140.014 9.02191 140.014 8.58725C140.014 8.14441 139.888 7.79593 139.636 7.54243C139.385 7.28893 138.999 7.16187 138.479 7.16187H136.924V9.98056H136.924ZM149.728 13.0502H146.335L145.69 14.9858H143.632L147.129 5.59432H148.921L152.436 14.9858H150.379L149.728 13.0509V13.0502ZM146.857 11.4839H149.205L148.025 7.96766L146.857 11.4839ZM156.255 11.6771V14.9858H154.32V5.59432H157.984C158.689 5.59432 159.309 5.72327 159.844 5.9818C160.38 6.23971 160.792 6.6058 161.08 7.08135C161.368 7.55627 161.512 8.09724 161.512 8.70362C161.512 9.6239 161.198 10.3492 160.567 10.8801C159.937 11.4116 159.065 11.6771 157.952 11.6771H156.255V11.6771ZM156.255 10.1095H157.984C158.496 10.1095 158.886 9.98937 159.154 9.74845C159.424 9.50753 159.558 9.16345 159.558 8.71683C159.558 8.25638 159.422 7.884 159.151 7.6003C158.881 7.31724 158.507 7.17067 158.029 7.16187H156.255V10.1095ZM171.49 14.9858H169.555V10.9612H165.783V14.9858H163.847V5.59432H165.783V9.39996H169.555V5.59432H171.49V14.9858Z" fill="#FABF2C"/>
<path d="M58.7344 29.3529L56.6641 23.391H56.625C56.6803 24.2764 56.708 25.1065 56.708 25.8813V29.3529H55.6484V22.2143H57.2939L59.2764 27.893H59.3057L61.3467 22.2143H62.9971V29.3529H61.874V25.8227C61.874 25.4679 61.8822 25.0056 61.8984 24.4359C61.918 23.8663 61.9342 23.5212 61.9473 23.4008H61.9082L59.7646 29.3529H58.7344ZM68.1338 29.3529L67.9043 28.601H67.8652C67.6048 28.9298 67.3428 29.1544 67.0791 29.2748C66.8154 29.392 66.4769 29.4506 66.0635 29.4506C65.5329 29.4506 65.1178 29.3074 64.8184 29.0209C64.5221 28.7345 64.374 28.3292 64.374 27.8051C64.374 27.2484 64.5807 26.8285 64.9941 26.5453C65.4076 26.2621 66.0374 26.1075 66.8838 26.0815L67.8164 26.0522V25.7641C67.8164 25.419 67.735 25.1619 67.5723 24.9926C67.4128 24.8201 67.1637 24.7338 66.8252 24.7338C66.5485 24.7338 66.2832 24.7745 66.0293 24.8559C65.7754 24.9373 65.5312 25.0333 65.2969 25.144L64.9258 24.3236C65.2188 24.1706 65.5394 24.0551 65.8877 23.977C66.236 23.8956 66.5648 23.8549 66.874 23.8549C67.5609 23.8549 68.0785 24.0046 68.4268 24.3041C68.7783 24.6036 68.9541 25.074 68.9541 25.7152V29.3529H68.1338ZM66.4248 28.5717C66.8415 28.5717 67.1751 28.4561 67.4258 28.225C67.6797 27.9906 67.8066 27.6635 67.8066 27.2436V26.7748L67.1133 26.8041C66.5729 26.8236 66.179 26.9148 65.9316 27.0776C65.6875 27.2371 65.5654 27.4828 65.5654 27.8149C65.5654 28.0557 65.637 28.2429 65.7803 28.3764C65.9235 28.5066 66.1383 28.5717 66.4248 28.5717ZM73.2949 23.8549C73.526 23.8549 73.7165 23.8712 73.8662 23.9037L73.7539 24.9731C73.5911 24.934 73.4219 24.9145 73.2461 24.9145C72.7871 24.9145 72.4144 25.0642 72.1279 25.3637C71.8447 25.6632 71.7031 26.0522 71.7031 26.5307V29.3529H70.5557V23.9526H71.4541L71.6055 24.9047H71.6641C71.8431 24.5824 72.0758 24.3269 72.3623 24.1381C72.652 23.9493 72.9629 23.8549 73.2949 23.8549ZM75.9805 26.5014L76.6299 25.6908L78.2607 23.9526H79.584L77.4111 26.2719L79.7207 29.3529H78.373L76.6396 26.9848L76.0098 27.5024V29.3529H74.8721V21.7553H76.0098V25.4613L75.9512 26.5014H75.9805ZM82.9531 29.4506C82.1133 29.4506 81.4557 29.2065 80.9805 28.7182C80.5085 28.2266 80.2725 27.5512 80.2725 26.6918C80.2725 25.8096 80.4922 25.1163 80.9316 24.6117C81.3711 24.1072 81.9749 23.8549 82.7432 23.8549C83.4561 23.8549 84.0192 24.0714 84.4326 24.5043C84.846 24.9373 85.0527 25.533 85.0527 26.2914V26.9115H81.4541C81.4704 27.4356 81.612 27.8393 81.8789 28.1225C82.1458 28.4024 82.5218 28.5424 83.0068 28.5424C83.3258 28.5424 83.6221 28.5131 83.8955 28.4545C84.1722 28.3927 84.4684 28.2917 84.7842 28.1518V29.0844C84.5042 29.2179 84.221 29.3123 83.9346 29.3676C83.6481 29.4229 83.321 29.4506 82.9531 29.4506ZM82.7432 24.724C82.3786 24.724 82.0856 24.8396 81.8643 25.0707C81.6462 25.3018 81.516 25.6387 81.4736 26.0815H83.9248C83.9183 25.6355 83.8109 25.2986 83.6025 25.0707C83.3942 24.8396 83.1077 24.724 82.7432 24.724ZM88.3682 28.5229C88.6481 28.5229 88.9281 28.4789 89.208 28.391V29.2553C89.0811 29.3106 88.9167 29.3562 88.7148 29.392C88.5163 29.4311 88.3096 29.4506 88.0947 29.4506C87.0075 29.4506 86.4639 28.8777 86.4639 27.7318V24.8217H85.7266V24.3139L86.5176 23.894L86.9082 22.7514H87.6162V23.9526H89.1543V24.8217H87.6162V27.7123C87.6162 27.989 87.6846 28.1941 87.8213 28.3276C87.9613 28.4578 88.1436 28.5229 88.3682 28.5229ZM93.9199 27.8149C93.9199 28.3422 93.7279 28.7475 93.3438 29.0307C92.9596 29.3106 92.4095 29.4506 91.6934 29.4506C90.974 29.4506 90.3962 29.3415 89.96 29.1234V28.1322C90.5947 28.4252 91.1855 28.5717 91.7324 28.5717C92.4388 28.5717 92.792 28.3585 92.792 27.932C92.792 27.7953 92.7529 27.6814 92.6748 27.5902C92.5967 27.4991 92.4681 27.4047 92.2891 27.307C92.11 27.2094 91.861 27.0987 91.542 26.975C90.9202 26.7341 90.4987 26.4932 90.2773 26.2524C90.0592 26.0115 89.9502 25.699 89.9502 25.3149C89.9502 24.8526 90.1357 24.4945 90.5068 24.2406C90.8812 23.9835 91.389 23.8549 92.0303 23.8549C92.665 23.8549 93.2656 23.9835 93.832 24.2406L93.4609 25.1049C92.8783 24.864 92.3883 24.7436 91.9912 24.7436C91.3857 24.7436 91.083 24.9161 91.083 25.2611C91.083 25.4304 91.1611 25.5736 91.3174 25.6908C91.4769 25.808 91.8219 25.9692 92.3525 26.1742C92.7985 26.3468 93.1224 26.5046 93.3242 26.6479C93.526 26.7911 93.6758 26.9571 93.7734 27.1459C93.8711 27.3315 93.9199 27.5544 93.9199 27.8149ZM102.611 24.3725C102.611 25.1179 102.367 25.6892 101.879 26.0863C101.391 26.4835 100.696 26.682 99.7939 26.682H99.0518V29.3529H97.8848V22.2143H99.9404C100.832 22.2143 101.5 22.3966 101.942 22.7611C102.388 23.1257 102.611 23.6628 102.611 24.3725ZM99.0518 25.7006H99.6719C100.271 25.7006 100.71 25.5964 100.99 25.3881C101.27 25.1798 101.41 24.8542 101.41 24.4115C101.41 24.0014 101.285 23.6954 101.034 23.4936C100.784 23.2917 100.393 23.1908 99.8623 23.1908H99.0518V25.7006ZM106.654 23.8549C106.885 23.8549 107.076 23.8712 107.226 23.9037L107.113 24.9731C106.951 24.934 106.781 24.9145 106.605 24.9145C106.146 24.9145 105.774 25.0642 105.487 25.3637C105.204 25.6632 105.062 26.0522 105.062 26.5307V29.3529H103.915V23.9526H104.813L104.965 24.9047H105.023C105.202 24.5824 105.435 24.3269 105.722 24.1381C106.011 23.9493 106.322 23.8549 106.654 23.8549ZM113.021 26.643C113.021 27.5251 112.795 28.2136 112.343 28.7084C111.89 29.2032 111.26 29.4506 110.453 29.4506C109.949 29.4506 109.503 29.3367 109.115 29.1088C108.728 28.8809 108.43 28.5538 108.222 28.1274C108.013 27.7009 107.909 27.2061 107.909 26.643C107.909 25.7673 108.134 25.0837 108.583 24.5922C109.032 24.1007 109.665 23.8549 110.482 23.8549C111.264 23.8549 111.882 24.1072 112.338 24.6117C112.794 25.113 113.021 25.7901 113.021 26.643ZM109.091 26.643C109.091 27.8897 109.551 28.5131 110.473 28.5131C111.384 28.5131 111.84 27.8897 111.84 26.643C111.84 25.4093 111.381 24.7924 110.463 24.7924C109.981 24.7924 109.631 24.9519 109.413 25.2709C109.198 25.5899 109.091 26.0473 109.091 26.643Z" fill="white"/>
</g>
<defs>
<clipPath id="clip0">
<rect width="172.073" height="39" fill="white" transform="translate(0.00732422)"/>
</clipPath>
</defs>
</svg>
