<?xml version="1.0" encoding="UTF-8"?>
<svg width="74px" height="74px" viewBox="0 0 74 74" version="1.1" xmlns="http://www.w3.org/2000/svg" xmlns:xlink="http://www.w3.org/1999/xlink">
    <title>Group</title>
    <g id="layout" stroke="none" stroke-width="1" fill="none" fill-rule="evenodd">
        <g id="Group" transform="translate(1.000000, 1.000000)">
            <rect id="Rectangle" stroke="#FFFFFF" x="0" y="0" width="72" height="72"></rect>
            <g id="Logo-02" fill="#000001" fill-rule="nonzero">
                <g id="Group">
                    <polyline id="Fill-7" points="23.4443839 43.6305195 23.4443839 63.6923077 45.7503641 63.6923077 45.7503641 61.5689844 25.5334865 61.5689844 25.5334865 57.6370658 45.7503641 57.6370658 45.7503641 55.5147685 25.5334865 55.5147685 25.5334865 51.8070326 45.7503641 51.8070326 45.7503641 49.6847354 25.5334865 49.6847354 25.5334865 45.7528168 45.7503641 45.7528168 45.7503641 43.6305195 25.5334865 43.6305195 25.5334865 39.6986009 45.7503641 39.6986009 45.7503641 37.5763036 25.5334865 37.5763036 25.5334865 33.8685677 45.7503641 33.8685677 45.7503641 31.746527 25.5334865 31.746527 25.5334865 27.8143518 63.257771 27.8143518 63.257771 7.75384615 7.74632061 7.75384615 7.74632061 9.87588691 61.1696784 9.87588691 61.1696784 13.8078055 7.74632061 13.8078055 7.74632061 15.9303593 61.1696784 15.9303593 61.1696784 19.6378387 7.74632061 19.6378387 7.74632061 21.760136 61.1696784 21.760136 61.1696784 25.6920546 7.74632061 25.6920546 7.74632061 27.8143518 23.4443839 27.8143518 23.4443839 43.6305195"></polyline>
                </g>
            </g>
        </g>
    </g>
</svg>